<?xml version="1.0" encoding="UTF-8"?><svg id="a" xmlns="http://www.w3.org/2000/svg" viewBox="0 0 657.22 378.43"><defs><style>.b{fill:#231f20;}</style></defs><path class="b" d="m68.15,0c29.88,22.78,59.77,45.56,89.65,68.33-6.05,19.51-12.11,39.01-18.16,58.52,0,0-19.62-14.02-44.15-18.92,0,0-7.01-6.31-4.21-41.35,0,0-47.66-5.61-16.82,50.46,0,0,38.55-.7,55.37,29.44,0,0-22.34,65.09-63.87,126.85,0,0-72.8-47.83-65.44-144.03,0,0,16.29,45.73,41.53,69.91,0,0,8.41,7.36,17.87,28.38,0,0-2.62-27.89-26.28-52.04,0,0-58.87-76.74-5.78-142.45,0,0,25.93-24.71,40.3-33.12Z"/><path class="b" d="m171.15,75.73c-31.54,128.26-95.46,207.33-95.46,207.33,12.27,11.31,16.82,13.67,16.82,13.67,25.23-36.27,55.19-22.08,55.19-22.08,70.44-122.47,150.89-137.89,150.89-137.89-66.76-18.92-127.44-61.03-127.44-61.03Zm-10.83,126.38h-7.36l25.23-53.62,33.12,4.73-50.99,48.88Z"/><polygon class="b" points="438.64 289.36 469.45 296.72 451.58 312.87 438.64 289.36"/><path class="b" d="m614.72,142.56h0s-45.46,23.8-55.83,8.38c-10.37-15.42,0-44.27,0-44.27h0c-7.2-8.86-13.83-19.65-19.43-32.82,0,0-8.06,21.73-13.32,82.35l28.38,30.02s56.7-10.05,102.67-41.24c0,0-18.85,3.59-42.5-2.42Z"/><path class="b" d="m562.23,110.91s-5.06,29.7,2.96,36.66,43.96-6.96,43.96-6.96c0,0-22.87-7.1-46.91-29.7Z"/><path class="b" d="m209.2,292.52c100.4,32.59,165.53,6.4,165.53,6.4-15.24-60.45,13.18-137.78,13.18-137.78h.07c-5.1-.97-10.06-2-14.85-3.07l.14.03s-24.79,36.12-55.28,110.24c0,0-25.76,2.1-46.52-2.1,0,0,27.17-52.69,90.19-110.84l.14.03c-9.68-2.36-18.45-4.77-26.01-6.99l.18.05c-107.64,69.91-126.79,144.03-126.79,144.03Z"/><polygon class="b" points="328.75 146.31 328.75 146.31 328.75 146.31 328.75 146.31"/><path class="b" d="m188.7,301.98c52.04-114.59,140.04-155.67,140.04-155.67-13.62-4.19-23-7.28-23-7.28-154.01,85.68-167.5,194.75-167.5,194.75,104.94,62.14,194.47,51.74,260.94,15.38l-17.04-36.15c-93.56,30.49-193.44-11.04-193.44-11.04Z"/><path class="b" d="m529.2,179.75l.65.74-14.72,11.37-2.37-3.99-16.29,8.46,7.36,22.87,21.55-22.6-21.81,32.59-16.29-38.9,28.65-13.14,3.94,6.57,7.05-6.57-11.78-13.4c-16.22,3.74-33.45,5.29-50.79,5.33h.33c20.76,40.55,22.35,83.36,22.35,83.36h22.35c23.77-30.27,36.24-53.99,36.24-53.99l-16.42-18.68Z"/><path class="b" d="m464.67,265.71l9.37-9.79c5.26-29.41-19.96-86.94-19.99-87-21-.64-41.89-3.32-61.06-6.82l.35.07c-33.47,104.59,16.46,180.85,16.47,180.88,8.83-5.35,17.24-11.08,25.27-17.08-.3-.45-10.59-16.5-13-32.04,0,0,14.95,20.18,26.21,21.67,22.14-18.3,40.76-38.18,55.55-56.28l-39.18,6.4Zm-45.38-22.42l-5.96-33.81c22.78,6.84,29.08,12.96,29.08,12.96l-23.12,20.85Z"/><path class="b" d="m435.87,325.38l-.77.6s-.01-.01-.01-.02c.26-.19.52-.38.78-.58Z"/><path class="b" d="m448.32,315.59l-.77.6c.25-.2.5-.4.75-.6h.02Z"/></svg>